<?xml version="1.0" standalone="no"?>
<!DOCTYPE svg PUBLIC "-//W3C//DTD SVG 20010904//EN"
 "http://www.w3.org/TR/2001/REC-SVG-20010904/DTD/svg10.dtd">
<svg version="1.0" xmlns="http://www.w3.org/2000/svg"
 width="700.000000pt" height="700.000000pt" viewBox="0 0 700.000000 700.000000"
 preserveAspectRatio="xMidYMid meet">
<metadata>
Created by potrace 1.11, written by Peter Selinger 2001-2013
</metadata>
<g transform="translate(0.000000,700.000000) scale(0.100000,-0.100000)"
fill="#000000" stroke="none">
<path d="M2820 6553 c-609 -62 -1146 -341 -1538 -798 -353 -411 -552 -931
-556 -1450 -1 -133 2 -158 23 -222 13 -40 38 -96 57 -125 l33 -53 -167 -6
c-133 -4 -180 -10 -232 -27 -351 -116 -527 -497 -374 -810 40 -81 161 -200
246 -242 l68 -33 -33 -36 c-76 -84 -115 -183 -124 -311 -10 -165 47 -311 169
-426 76 -72 180 -129 254 -140 24 -3 44 -7 44 -8 0 -1 -7 -23 -16 -49 -13 -38
-15 -87 -12 -289 3 -234 4 -246 30 -316 37 -103 83 -175 159 -251 74 -75 163
-131 259 -164 l65 -22 2270 -3 c1637 -2 2286 0 2328 8 226 43 417 216 498 450
19 57 22 91 27 281 4 198 -1 274 -23 330 -5 14 5 19 62 28 251 44 443 272 443
526 0 120 -52 263 -126 344 l-35 39 78 38 c104 52 215 160 263 259 33 67 35
75 38 202 3 113 1 143 -17 201 -53 174 -213 332 -401 394 -50 16 -97 22 -202
26 l-136 4 38 71 c56 104 70 168 70 324 0 501 -196 1030 -530 1428 -83 99
-242 256 -335 331 -263 210 -605 375 -933 449 -224 51 -311 55 -1032 53 -366
0 -681 -3 -700 -5z m1582 -241 c220 -42 395 -100 567 -187 556 -279 960 -785
1106 -1388 35 -144 57 -338 53 -469 -3 -97 -7 -121 -29 -168 -33 -70 -89 -126
-159 -159 l-55 -26 -2320 -3 c-1782 -2 -2330 0 -2365 9 -100 27 -194 111 -230
207 -27 72 -33 145 -20 287 70 823 591 1511 1362 1799 119 44 302 90 423 105
50 6 101 13 115 15 14 2 345 3 735 1 671 -2 716 -3 817 -23z m2145 -2671 c88
-41 162 -115 200 -198 36 -78 39 -205 7 -273 -30 -64 -98 -128 -174 -163 -56
-26 -80 -31 -171 -35 -70 -3 -119 0 -144 8 -21 7 -153 68 -294 135 -141 68
-287 131 -326 141 -52 14 -104 19 -205 18 -172 0 -213 -12 -537 -148 -300
-126 -341 -139 -458 -139 -123 0 -185 18 -403 119 -235 109 -288 129 -398 150
-119 22 -301 15 -397 -15 -37 -12 -160 -65 -272 -116 -228 -106 -290 -125
-420 -125 -132 0 -197 20 -430 131 -115 55 -236 109 -270 119 -131 42 -261 50
-395 24 -100 -19 -162 -43 -455 -176 -126 -58 -247 -111 -269 -118 -26 -8 -74
-11 -145 -8 -91 4 -115 9 -171 35 -76 35 -144 99 -174 163 -32 68 -29 195 6
272 52 114 117 172 237 214 l66 24 2960 -3 2960 -2 72 -34z m-539 -1806 c18
-11 42 -39 53 -63 20 -40 21 -55 16 -240 -5 -222 -14 -262 -75 -352 -47 -69
-124 -131 -199 -161 l-58 -24 -2270 0 -2270 0 -75 36 c-122 59 -202 155 -236
284 -9 33 -14 113 -14 238 0 236 8 261 97 293 32 11 461 13 2518 11 2451 -2
2480 -2 2513 -22z"/>
</g>
</svg>
